<svg xmlns="http://www.w3.org/2000/svg" xmlns:xlink="http://www.w3.org/1999/xlink" contentStyleType="text/css" data-diagram-type="CLASS" height="1322px" preserveAspectRatio="none" style="width:1271px;height:1322px;background:#FFFFFF;" version="1.1" viewBox="0 0 1271 1322" width="1271px" zoomAndPan="magnify"><defs/><g><!--class OrderIds--><g class="entity" data-entity="OrderIds" data-source-line="3" data-uid="ent0002" id="entity_OrderIds"><rect fill="#F1F1F1" height="64.2969" rx="3.5" ry="3.5" style="stroke:#181818;stroke-width:0.5;" width="102.8496" x="7" y="205.64"/><ellipse cx="26.729" cy="221.64" fill="#ADD1B2" rx="11" ry="11" style="stroke:#181818;stroke-width:1;"/><path d="M29.6977,227.2806 Q29.1196,227.5775 28.479,227.7181 Q27.8383,227.8744 27.1352,227.8744 Q24.6352,227.8744 23.3071,226.2337 Q21.9946,224.5775 21.9946,221.4525 Q21.9946,218.3275 23.3071,216.6712 Q24.6352,215.015 27.1352,215.015 Q27.8383,215.015 28.479,215.1712 Q29.1352,215.3275 29.6977,215.6244 L29.6977,218.3431 Q29.0727,217.765 28.479,217.4994 Q27.8852,217.2181 27.2602,217.2181 Q25.9165,217.2181 25.229,218.2962 Q24.5415,219.3587 24.5415,221.4525 Q24.5415,223.5462 25.229,224.6244 Q25.9165,225.6869 27.2602,225.6869 Q27.8852,225.6869 28.479,225.4212 Q29.0727,225.14 29.6977,224.5619 L29.6977,227.2806 Z " fill="#000000"/><text fill="#000000" font-family="sans-serif" font-size="14" lengthAdjust="spacing" textLength="60.3408" x="41.7798" y="226.4867">OrderIds</text><line style="stroke:#181818;stroke-width:0.5;" x1="8" x2="108.8496" y1="237.64" y2="237.64"/><line style="stroke:#181818;stroke-width:0.5;" x1="8" x2="108.8496" y1="245.64" y2="245.64"/><ellipse cx="18" cy="259.2884" fill="#84BE84" rx="3" ry="3" style="stroke:#038048;stroke-width:1;"/><text fill="#000000" font-family="sans-serif" font-size="14" lengthAdjust="spacing" text-decoration="underline" textLength="76.8496" x="27" y="262.6351">long next()</text></g><!--class Catalog--><g class="entity" data-entity="Catalog" data-source-line="7" data-uid="ent0003" id="entity_Catalog"><rect fill="#F1F1F1" height="80.5938" rx="3.5" ry="3.5" style="stroke:#181818;stroke-width:0.5;" width="277.002" x="144.92" y="197.49"/><ellipse cx="252.2887" cy="213.49" fill="#B4A7E5" rx="11" ry="11" style="stroke:#181818;stroke-width:1;"/><path d="M248.2105,209.2556 L248.2105,207.0994 L255.6012,207.0994 L255.6012,209.2556 L253.1324,209.2556 L253.1324,217.3338 L255.6012,217.3338 L255.6012,219.49 L248.2105,219.49 L248.2105,217.3338 L250.6793,217.3338 L250.6793,209.2556 L248.2105,209.2556 Z " fill="#000000"/><text fill="#000000" font-family="sans-serif" font-size="14" font-style="italic" lengthAdjust="spacing" textLength="53.7646" x="272.7887" y="218.3367">Catalog</text><line style="stroke:#181818;stroke-width:0.5;" x1="145.92" x2="420.922" y1="229.49" y2="229.49"/><line style="stroke:#181818;stroke-width:0.5;" x1="145.92" x2="420.922" y1="237.49" y2="237.49"/><ellipse cx="155.92" cy="251.1384" fill="#84BE84" rx="3" ry="3" style="stroke:#038048;stroke-width:1;"/><text fill="#000000" font-family="sans-serif" font-size="14" lengthAdjust="spacing" textLength="125.0635" x="164.92" y="254.4851">void add(Product)</text><ellipse cx="155.92" cy="267.4353" fill="#84BE84" rx="3" ry="3" style="stroke:#038048;stroke-width:1;"/><text fill="#000000" font-family="sans-serif" font-size="14" lengthAdjust="spacing" textLength="251.002" x="164.92" y="270.782">Optional&lt;Product&gt; findById(String)</text></g><!--class InMemoryCatalog--><g class="entity" data-entity="InMemoryCatalog" data-source-line="12" data-uid="ent0004" id="entity_InMemoryCatalog"><rect fill="#F1F1F1" height="96.8906" rx="3.5" ry="3.5" style="stroke:#181818;stroke-width:0.5;" width="277.002" x="82.92" y="456.86"/><ellipse cx="155.3194" cy="472.86" fill="#ADD1B2" rx="11" ry="11" style="stroke:#181818;stroke-width:1;"/><path d="M158.2882,478.5006 Q157.71,478.7975 157.0694,478.9381 Q156.4288,479.0944 155.7257,479.0944 Q153.2257,479.0944 151.8975,477.4537 Q150.585,475.7975 150.585,472.6725 Q150.585,469.5475 151.8975,467.8912 Q153.2257,466.235 155.7257,466.235 Q156.4288,466.235 157.0694,466.3912 Q157.7257,466.5475 158.2882,466.8444 L158.2882,469.5631 Q157.6632,468.985 157.0694,468.7194 Q156.4757,468.4381 155.8507,468.4381 Q154.5069,468.4381 153.8194,469.5162 Q153.1319,470.5787 153.1319,472.6725 Q153.1319,474.7662 153.8194,475.8444 Q154.5069,476.9069 155.8507,476.9069 Q156.4757,476.9069 157.0694,476.6412 Q157.6632,476.36 158.2882,475.7819 L158.2882,478.5006 Z " fill="#000000"/><text fill="#000000" font-family="sans-serif" font-size="14" lengthAdjust="spacing" textLength="123.7031" x="175.8194" y="477.7067">InMemoryCatalog</text><line style="stroke:#181818;stroke-width:0.5;" x1="83.92" x2="358.922" y1="488.86" y2="488.86"/><rect fill="none" height="6" style="stroke:#C82930;stroke-width:1;" width="6" x="90.92" y="499.5084"/><text fill="#000000" font-family="sans-serif" font-size="14" lengthAdjust="spacing" textLength="192.0352" x="102.92" y="505.8551">Map&lt;String, Product&gt; byId</text><line style="stroke:#181818;stroke-width:1;" x1="83.92" x2="358.922" y1="513.1569" y2="513.1569"/><ellipse cx="93.92" cy="526.8053" fill="#84BE84" rx="3" ry="3" style="stroke:#038048;stroke-width:1;"/><text fill="#000000" font-family="sans-serif" font-size="14" lengthAdjust="spacing" textLength="125.0635" x="102.92" y="530.152">void add(Product)</text><ellipse cx="93.92" cy="543.1022" fill="#84BE84" rx="3" ry="3" style="stroke:#038048;stroke-width:1;"/><text fill="#000000" font-family="sans-serif" font-size="14" lengthAdjust="spacing" textLength="251.002" x="102.92" y="546.4489">Optional&lt;Product&gt; findById(String)</text></g><!--class Product--><g class="entity" data-entity="Product" data-source-line="19" data-uid="ent0005" id="entity_Product"><rect fill="#F1F1F1" height="96.8906" rx="3.5" ry="3.5" style="stroke:#181818;stroke-width:0.5;" width="155.5615" x="257.64" y="667.35"/><ellipse cx="304.3158" cy="683.35" fill="#B4A7E5" rx="11" ry="11" style="stroke:#181818;stroke-width:1;"/><path d="M300.2377,679.1156 L300.2377,676.9594 L307.6283,676.9594 L307.6283,679.1156 L305.1595,679.1156 L305.1595,687.1937 L307.6283,687.1937 L307.6283,689.35 L300.2377,689.35 L300.2377,687.1937 L302.7064,687.1937 L302.7064,679.1156 L300.2377,679.1156 Z " fill="#000000"/><text fill="#000000" font-family="sans-serif" font-size="14" font-style="italic" lengthAdjust="spacing" textLength="53.71" x="324.8158" y="688.1967">Product</text><line style="stroke:#181818;stroke-width:0.5;" x1="258.64" x2="412.2015" y1="699.35" y2="699.35"/><line style="stroke:#181818;stroke-width:0.5;" x1="258.64" x2="412.2015" y1="707.35" y2="707.35"/><ellipse cx="268.64" cy="720.9984" fill="#84BE84" rx="3" ry="3" style="stroke:#038048;stroke-width:1;"/><text fill="#000000" font-family="sans-serif" font-size="14" lengthAdjust="spacing" textLength="69.9316" x="277.64" y="724.3451">String id()</text><ellipse cx="268.64" cy="737.2953" fill="#84BE84" rx="3" ry="3" style="stroke:#038048;stroke-width:1;"/><text fill="#000000" font-family="sans-serif" font-size="14" lengthAdjust="spacing" textLength="96.8584" x="277.64" y="740.642">String name()</text><ellipse cx="268.64" cy="753.5922" fill="#84BE84" rx="3" ry="3" style="stroke:#038048;stroke-width:1;"/><text fill="#000000" font-family="sans-serif" font-size="14" lengthAdjust="spacing" textLength="129.5615" x="277.64" y="756.9389">Money basePrice()</text></g><!--class SimpleProduct--><g class="entity" data-entity="SimpleProduct" data-source-line="25" data-uid="ent0006" id="entity_SimpleProduct"><rect fill="#F1F1F1" height="137.4844" rx="3.5" ry="3.5" style="stroke:#181818;stroke-width:0.5;" width="286.2168" x="192.32" y="841.24"/><ellipse cx="280.4216" cy="857.24" fill="#ADD1B2" rx="11" ry="11" style="stroke:#181818;stroke-width:1;"/><path d="M283.3903,862.8806 Q282.8122,863.1775 282.1716,863.3181 Q281.5309,863.4744 280.8278,863.4744 Q278.3278,863.4744 276.9997,861.8338 Q275.6872,860.1775 275.6872,857.0525 Q275.6872,853.9275 276.9997,852.2713 Q278.3278,850.615 280.8278,850.615 Q281.5309,850.615 282.1716,850.7713 Q282.8278,850.9275 283.3903,851.2244 L283.3903,853.9431 Q282.7653,853.365 282.1716,853.0994 Q281.5778,852.8181 280.9528,852.8181 Q279.6091,852.8181 278.9216,853.8963 Q278.2341,854.9588 278.2341,857.0525 Q278.2341,859.1463 278.9216,860.2244 Q279.6091,861.2869 280.9528,861.2869 Q281.5778,861.2869 282.1716,861.0213 Q282.7653,860.74 283.3903,860.1619 L283.3903,862.8806 Z " fill="#000000"/><text fill="#000000" font-family="sans-serif" font-size="14" lengthAdjust="spacing" textLength="101.5137" x="300.9216" y="862.0867">SimpleProduct</text><line style="stroke:#181818;stroke-width:0.5;" x1="193.32" x2="477.5368" y1="873.24" y2="873.24"/><rect fill="none" height="6" style="stroke:#C82930;stroke-width:1;" width="6" x="200.32" y="883.8884"/><text fill="#000000" font-family="sans-serif" font-size="14" lengthAdjust="spacing" textLength="59.0078" x="212.32" y="890.2351">String id</text><rect fill="none" height="6" style="stroke:#C82930;stroke-width:1;" width="6" x="200.32" y="900.1853"/><text fill="#000000" font-family="sans-serif" font-size="14" lengthAdjust="spacing" textLength="85.9346" x="212.32" y="906.532">String name</text><rect fill="none" height="6" style="stroke:#C82930;stroke-width:1;" width="6" x="200.32" y="916.4822"/><text fill="#000000" font-family="sans-serif" font-size="14" lengthAdjust="spacing" textLength="118.6377" x="212.32" y="922.8289">Money basePrice</text><line style="stroke:#181818;stroke-width:1;" x1="193.32" x2="477.5368" y1="930.1306" y2="930.1306"/><ellipse cx="203.32" cy="943.7791" fill="#84BE84" rx="3" ry="3" style="stroke:#038048;stroke-width:1;"/><text fill="#000000" font-family="sans-serif" font-size="14" lengthAdjust="spacing" textLength="260.2168" x="212.32" y="947.1257">SimpleProduct(String, String, Money)</text><line style="stroke:#181818;stroke-width:1;" x1="193.32" x2="477.5368" y1="954.4275" y2="954.4275"/><text fill="#000000" font-family="sans-serif" font-size="14" lengthAdjust="spacing" textLength="188.7129" x="198.32" y="971.4226">constraint: basePrice &gt;= 0</text></g><!--class Money--><g class="entity" data-entity="Money" data-source-line="35" data-uid="ent0007" id="entity_Money"><rect fill="#F1F1F1" height="259.8281" rx="3.5" ry="3.5" style="stroke:#181818;stroke-width:0.5;" width="205.6553" x="428.6" y="1055.72"/><ellipse cx="485.0507" cy="1075.8528" fill="#ADD1B2" rx="11" ry="11" style="stroke:#181818;stroke-width:1;"/><path d="M488.0194,1081.4934 Q487.4413,1081.7903 486.8007,1081.9309 Q486.1601,1082.0872 485.4569,1082.0872 Q482.9569,1082.0872 481.6288,1080.4466 Q480.3163,1078.7903 480.3163,1075.6653 Q480.3163,1072.5403 481.6288,1070.8841 Q482.9569,1069.2278 485.4569,1069.2278 Q486.1601,1069.2278 486.8007,1069.3841 Q487.4569,1069.5403 488.0194,1069.8372 L488.0194,1072.5559 Q487.3944,1071.9778 486.8007,1071.7122 Q486.2069,1071.4309 485.5819,1071.4309 Q484.2382,1071.4309 483.5507,1072.5091 Q482.8632,1073.5716 482.8632,1075.6653 Q482.8632,1077.7591 483.5507,1078.8372 Q484.2382,1079.8997 485.5819,1079.8997 Q486.2069,1079.8997 486.8007,1079.6341 Q487.3944,1079.3528 488.0194,1078.7747 L488.0194,1081.4934 Z " fill="#000000"/><text fill="#000000" font-family="sans-serif" font-size="12" font-style="italic" lengthAdjust="spacing" textLength="88.2539" x="503.5507" y="1071.8587">&#171;value object&#187;</text><text fill="#000000" font-family="sans-serif" font-size="14" lengthAdjust="spacing" textLength="46.416" x="524.4696" y="1087.6839">Money</text><line style="stroke:#181818;stroke-width:0.5;" x1="429.6" x2="633.2553" y1="1095.9856" y2="1095.9856"/><rect fill="none" height="6" style="stroke:#C82930;stroke-width:1;" width="6" x="436.6" y="1106.6341"/><text fill="#000000" font-family="sans-serif" font-size="14" lengthAdjust="spacing" textLength="137.9355" x="448.6" y="1112.9807">BigDecimal amount</text><line style="stroke:#181818;stroke-width:1;" x1="429.6" x2="633.2553" y1="1120.2825" y2="1120.2825"/><ellipse cx="439.6" cy="1133.9309" fill="#84BE84" rx="3" ry="3" style="stroke:#038048;stroke-width:1;"/><text fill="#000000" font-family="sans-serif" font-size="14" lengthAdjust="spacing" text-decoration="underline" textLength="122.999" x="448.6" y="1137.2776">Money of(double)</text><ellipse cx="439.6" cy="1150.2278" fill="#84BE84" rx="3" ry="3" style="stroke:#038048;stroke-width:1;"/><text fill="#000000" font-family="sans-serif" font-size="14" lengthAdjust="spacing" text-decoration="underline" textLength="92.0732" x="448.6" y="1153.5745">Money zero()</text><ellipse cx="439.6" cy="1166.5247" fill="#84BE84" rx="3" ry="3" style="stroke:#038048;stroke-width:1;"/><text fill="#000000" font-family="sans-serif" font-size="14" lengthAdjust="spacing" textLength="134.5586" x="448.6" y="1169.8714">Money add(Money)</text><ellipse cx="439.6" cy="1182.8216" fill="#84BE84" rx="3" ry="3" style="stroke:#038048;stroke-width:1;"/><text fill="#000000" font-family="sans-serif" font-size="14" lengthAdjust="spacing" textLength="136.8828" x="448.6" y="1186.1682">Money multiply(int)</text><ellipse cx="439.6" cy="1199.1184" fill="#84BE84" rx="3" ry="3" style="stroke:#038048;stroke-width:1;"/><text fill="#000000" font-family="sans-serif" font-size="14" lengthAdjust="spacing" textLength="122.4932" x="448.6" y="1202.4651">Money divide(int)</text><ellipse cx="439.6" cy="1215.4153" fill="#84BE84" rx="3" ry="3" style="stroke:#038048;stroke-width:1;"/><text fill="#000000" font-family="sans-serif" font-size="14" lengthAdjust="spacing" textLength="158.8945" x="448.6" y="1218.762">int compareTo(Money)</text><ellipse cx="439.6" cy="1231.7122" fill="#84BE84" rx="3" ry="3" style="stroke:#038048;stroke-width:1;"/><text fill="#000000" font-family="sans-serif" font-size="14" lengthAdjust="spacing" textLength="112.9912" x="448.6" y="1235.0589">String toString()</text><ellipse cx="439.6" cy="1248.0091" fill="#84BE84" rx="3" ry="3" style="stroke:#038048;stroke-width:1;"/><text fill="#000000" font-family="sans-serif" font-size="14" lengthAdjust="spacing" textLength="163.0781" x="448.6" y="1251.3557">boolean equals(Object)</text><ellipse cx="439.6" cy="1264.3059" fill="#84BE84" rx="3" ry="3" style="stroke:#038048;stroke-width:1;"/><text fill="#000000" font-family="sans-serif" font-size="14" lengthAdjust="spacing" textLength="103.0859" x="448.6" y="1267.6526">int hashCode()</text><line style="stroke:#181818;stroke-width:1;" x1="429.6" x2="633.2553" y1="1274.9544" y2="1274.9544"/><text fill="#000000" font-family="sans-serif" font-size="14" lengthAdjust="spacing" textLength="188.9316" x="434.6" y="1291.9495">invariant: amount &gt;= 0.00</text><text fill="#000000" font-family="sans-serif" font-size="14" lengthAdjust="spacing" textLength="193.6553" x="434.6" y="1308.2464">scale: 2 decimals(HALF_UP)</text></g><!--class LineItem--><g class="entity" data-entity="LineItem" data-source-line="52" data-uid="ent0008" id="entity_LineItem"><rect fill="#F1F1F1" height="170.0781" rx="3.5" ry="3.5" style="stroke:#181818;stroke-width:0.5;" width="179.5762" x="394.64" y="420.27"/><ellipse cx="449.6556" cy="436.27" fill="#ADD1B2" rx="11" ry="11" style="stroke:#181818;stroke-width:1;"/><path d="M452.6244,441.9106 Q452.0463,442.2075 451.4056,442.3481 Q450.765,442.5044 450.0619,442.5044 Q447.5619,442.5044 446.2338,440.8638 Q444.9213,439.2075 444.9213,436.0825 Q444.9213,432.9575 446.2338,431.3013 Q447.5619,429.645 450.0619,429.645 Q450.765,429.645 451.4056,429.8013 Q452.0619,429.9575 452.6244,430.2544 L452.6244,432.9731 Q451.9994,432.395 451.4056,432.1294 Q450.8119,431.8481 450.1869,431.8481 Q448.8431,431.8481 448.1556,432.9263 Q447.4681,433.9888 447.4681,436.0825 Q447.4681,438.1763 448.1556,439.2544 Q448.8431,440.3169 450.1869,440.3169 Q450.8119,440.3169 451.4056,440.0513 Q451.9994,439.77 452.6244,439.1919 L452.6244,441.9106 Z " fill="#000000"/><text fill="#000000" font-family="sans-serif" font-size="14" lengthAdjust="spacing" textLength="61.0449" x="470.1556" y="441.1167">LineItem</text><line style="stroke:#181818;stroke-width:0.5;" x1="395.64" x2="573.2162" y1="452.27" y2="452.27"/><rect fill="none" height="6" style="stroke:#C82930;stroke-width:1;" width="6" x="402.64" y="462.9184"/><text fill="#000000" font-family="sans-serif" font-size="14" lengthAdjust="spacing" textLength="112.3145" x="414.64" y="469.2651">Product product</text><rect fill="none" height="6" style="stroke:#C82930;stroke-width:1;" width="6" x="402.64" y="479.2153"/><text fill="#000000" font-family="sans-serif" font-size="14" lengthAdjust="spacing" textLength="81.0674" x="414.64" y="485.562">int quantity</text><line style="stroke:#181818;stroke-width:1;" x1="395.64" x2="573.2162" y1="492.8638" y2="492.8638"/><ellipse cx="405.64" cy="506.5122" fill="#84BE84" rx="3" ry="3" style="stroke:#038048;stroke-width:1;"/><text fill="#000000" font-family="sans-serif" font-size="14" lengthAdjust="spacing" textLength="152.8311" x="414.64" y="509.8589">LineItem(Product, int)</text><ellipse cx="405.64" cy="522.8091" fill="#84BE84" rx="3" ry="3" style="stroke:#038048;stroke-width:1;"/><text fill="#000000" font-family="sans-serif" font-size="14" lengthAdjust="spacing" textLength="123.2383" x="414.64" y="526.1557">Product product()</text><ellipse cx="405.64" cy="539.1059" fill="#84BE84" rx="3" ry="3" style="stroke:#038048;stroke-width:1;"/><text fill="#000000" font-family="sans-serif" font-size="14" lengthAdjust="spacing" textLength="91.9912" x="414.64" y="542.4526">int quantity()</text><ellipse cx="405.64" cy="555.4028" fill="#84BE84" rx="3" ry="3" style="stroke:#038048;stroke-width:1;"/><text fill="#000000" font-family="sans-serif" font-size="14" lengthAdjust="spacing" textLength="122.1309" x="414.64" y="558.7495">Money lineTotal()</text><line style="stroke:#181818;stroke-width:1;" x1="395.64" x2="573.2162" y1="566.0513" y2="566.0513"/><text fill="#000000" font-family="sans-serif" font-size="14" lengthAdjust="spacing" textLength="167.5762" x="400.64" y="583.0464">constraint: quantity &gt; 0</text></g><!--class Order--><g class="entity" data-entity="Order" data-source-line="64" data-uid="ent0009" id="entity_Order"><rect fill="#F1F1F1" height="210.9688" rx="3.5" ry="3.5" style="stroke:#181818;stroke-width:0.5;" width="218.6572" x="518.1" y="132.3"/><ellipse cx="603.163" cy="148.3" fill="#ADD1B2" rx="11" ry="11" style="stroke:#181818;stroke-width:1;"/><path d="M606.1317,153.9406 Q605.5536,154.2375 604.913,154.3781 Q604.2724,154.5344 603.5692,154.5344 Q601.0692,154.5344 599.7411,152.8937 Q598.4286,151.2375 598.4286,148.1125 Q598.4286,144.9875 599.7411,143.3312 Q601.0692,141.675 603.5692,141.675 Q604.2724,141.675 604.913,141.8312 Q605.5692,141.9875 606.1317,142.2844 L606.1317,145.0031 Q605.5067,144.425 604.913,144.1594 Q604.3192,143.8781 603.6942,143.8781 Q602.3505,143.8781 601.663,144.9562 Q600.9755,146.0187 600.9755,148.1125 Q600.9755,150.2062 601.663,151.2844 Q602.3505,152.3469 603.6942,152.3469 Q604.3192,152.3469 604.913,152.0812 Q605.5067,151.8 606.1317,151.2219 L606.1317,153.9406 Z " fill="#000000"/><text fill="#000000" font-family="sans-serif" font-size="14" lengthAdjust="spacing" textLength="40.0313" x="623.663" y="153.1467">Order</text><line style="stroke:#181818;stroke-width:0.5;" x1="519.1" x2="735.7572" y1="164.3" y2="164.3"/><rect fill="none" height="6" style="stroke:#C82930;stroke-width:1;" width="6" x="526.1" y="174.9484"/><text fill="#000000" font-family="sans-serif" font-size="14" lengthAdjust="spacing" textLength="47.4414" x="538.1" y="181.2951">long id</text><rect fill="none" height="6" style="stroke:#C82930;stroke-width:1;" width="6" x="526.1" y="191.2453"/><text fill="#000000" font-family="sans-serif" font-size="14" lengthAdjust="spacing" textLength="152.3525" x="538.1" y="197.592">List&lt;LineItem&gt; items</text><line style="stroke:#181818;stroke-width:1;" x1="519.1" x2="735.7572" y1="204.8937" y2="204.8937"/><ellipse cx="529.1" cy="218.5422" fill="#84BE84" rx="3" ry="3" style="stroke:#038048;stroke-width:1;"/><text fill="#000000" font-family="sans-serif" font-size="14" lengthAdjust="spacing" textLength="81.1699" x="538.1" y="221.8889">Order(long)</text><ellipse cx="529.1" cy="234.8391" fill="#84BE84" rx="3" ry="3" style="stroke:#038048;stroke-width:1;"/><text fill="#000000" font-family="sans-serif" font-size="14" lengthAdjust="spacing" textLength="164.2676" x="538.1" y="238.1857">void addItem(LineItem)</text><ellipse cx="529.1" cy="251.1359" fill="#84BE84" rx="3" ry="3" style="stroke:#038048;stroke-width:1;"/><text fill="#000000" font-family="sans-serif" font-size="14" lengthAdjust="spacing" textLength="118.8564" x="538.1" y="254.4826">Money subtotal()</text><ellipse cx="529.1" cy="267.4328" fill="#84BE84" rx="3" ry="3" style="stroke:#038048;stroke-width:1;"/><text fill="#000000" font-family="sans-serif" font-size="14" lengthAdjust="spacing" textLength="170.9463" x="538.1" y="270.7795">Money taxAtPercent(int)</text><ellipse cx="529.1" cy="283.7297" fill="#84BE84" rx="3" ry="3" style="stroke:#038048;stroke-width:1;"/><text fill="#000000" font-family="sans-serif" font-size="14" lengthAdjust="spacing" textLength="169.5654" x="538.1" y="287.0764">Money totalWithTax(int)</text><ellipse cx="529.1" cy="300.0266" fill="#84BE84" rx="3" ry="3" style="stroke:#038048;stroke-width:1;"/><text fill="#000000" font-family="sans-serif" font-size="14" lengthAdjust="spacing" textLength="58.3652" x="538.1" y="303.3732">long id()</text><ellipse cx="529.1" cy="316.3234" fill="#84BE84" rx="3" ry="3" style="stroke:#038048;stroke-width:1;"/><text fill="#000000" font-family="sans-serif" font-size="14" lengthAdjust="spacing" textLength="163.2764" x="538.1" y="319.6701">List&lt;LineItem&gt; items()</text><ellipse cx="529.1" cy="332.6203" fill="#84BE84" rx="3" ry="3" style="stroke:#038048;stroke-width:1;"/><text fill="#000000" font-family="sans-serif" font-size="14" lengthAdjust="spacing" textLength="192.6572" x="538.1" y="335.967">void pay(PaymentStrategy)</text></g><!--class Week2Demo--><g class="entity" data-entity="Week2Demo" data-source-line="78" data-uid="ent0010" id="entity_Week2Demo"><rect fill="#F1F1F1" height="64.2969" rx="3.5" ry="3.5" style="stroke:#181818;stroke-width:0.5;" width="193.6514" x="186.6" y="7"/><ellipse cx="234.3354" cy="23" fill="#ADD1B2" rx="11" ry="11" style="stroke:#181818;stroke-width:1;"/><path d="M237.3041,28.6406 Q236.726,28.9375 236.0854,29.0781 Q235.4447,29.2344 234.7416,29.2344 Q232.2416,29.2344 230.9135,27.5938 Q229.601,25.9375 229.601,22.8125 Q229.601,19.6875 230.9135,18.0313 Q232.2416,16.375 234.7416,16.375 Q235.4447,16.375 236.0854,16.5313 Q236.7416,16.6875 237.3041,16.9844 L237.3041,19.7031 Q236.6791,19.125 236.0854,18.8594 Q235.4916,18.5781 234.8666,18.5781 Q233.5229,18.5781 232.8354,19.6563 Q232.1479,20.7188 232.1479,22.8125 Q232.1479,24.9063 232.8354,25.9844 Q233.5229,27.0469 234.8666,27.0469 Q235.4916,27.0469 236.0854,26.7813 Q236.6791,26.5 237.3041,25.9219 L237.3041,28.6406 Z " fill="#000000"/><text fill="#000000" font-family="sans-serif" font-size="14" lengthAdjust="spacing" textLength="89.6807" x="254.8354" y="27.8467">Week2Demo</text><line style="stroke:#181818;stroke-width:0.5;" x1="187.6" x2="379.2514" y1="39" y2="39"/><line style="stroke:#181818;stroke-width:0.5;" x1="187.6" x2="379.2514" y1="47" y2="47"/><ellipse cx="197.6" cy="60.6484" fill="#84BE84" rx="3" ry="3" style="stroke:#038048;stroke-width:1;"/><text fill="#000000" font-family="sans-serif" font-size="14" lengthAdjust="spacing" text-decoration="underline" textLength="167.6514" x="206.6" y="63.9951">void main(String[] args)</text></g><!--class PaymentStrategy--><g class="entity" data-entity="PaymentStrategy" data-source-line="83" data-uid="ent0011" id="entity_PaymentStrategy"><rect fill="#F1F1F1" height="72.5625" rx="3.5" ry="3.5" style="stroke:#181818;stroke-width:0.5;" width="153.9053" x="685.47" y="469.03"/><ellipse cx="700.47" cy="489.1628" fill="#B4A7E5" rx="11" ry="11" style="stroke:#181818;stroke-width:1;"/><path d="M696.3919,484.9284 L696.3919,482.7722 L703.7825,482.7722 L703.7825,484.9284 L701.3138,484.9284 L701.3138,493.0066 L703.7825,493.0066 L703.7825,495.1628 L696.3919,495.1628 L696.3919,493.0066 L698.8606,493.0066 L698.8606,484.9284 L696.3919,484.9284 Z " fill="#000000"/><text fill="#000000" font-family="sans-serif" font-size="12" font-style="italic" lengthAdjust="spacing" textLength="68.2031" x="741.3211" y="485.1687">&#171;interface&#187;</text><text fill="#000000" font-family="sans-serif" font-size="14" font-style="italic" lengthAdjust="spacing" textLength="121.9053" x="714.47" y="500.9939">PaymentStrategy</text><line style="stroke:#181818;stroke-width:0.5;" x1="686.47" x2="838.3753" y1="509.2956" y2="509.2956"/><line style="stroke:#181818;stroke-width:0.5;" x1="686.47" x2="838.3753" y1="517.2956" y2="517.2956"/><ellipse cx="696.47" cy="530.9441" fill="#84BE84" rx="3" ry="3" style="stroke:#038048;stroke-width:1;"/><text fill="#000000" font-family="sans-serif" font-size="14" lengthAdjust="spacing" textLength="110.7832" x="705.47" y="534.2907">void pay(Order)</text></g><!--class CashPayment--><g class="entity" data-entity="CashPayment" data-source-line="87" data-uid="ent0012" id="entity_CashPayment"><rect fill="#F1F1F1" height="64.2969" rx="3.5" ry="3.5" style="stroke:#181818;stroke-width:0.5;" width="136.7832" x="700.03" y="683.64"/><ellipse cx="718.7838" cy="699.64" fill="#ADD1B2" rx="11" ry="11" style="stroke:#181818;stroke-width:1;"/><path d="M721.7526,705.2806 Q721.1744,705.5775 720.5338,705.7181 Q719.8932,705.8744 719.1901,705.8744 Q716.6901,705.8744 715.3619,704.2338 Q714.0494,702.5775 714.0494,699.4525 Q714.0494,696.3275 715.3619,694.6713 Q716.6901,693.015 719.1901,693.015 Q719.8932,693.015 720.5338,693.1713 Q721.1901,693.3275 721.7526,693.6244 L721.7526,696.3431 Q721.1276,695.765 720.5338,695.4994 Q719.9401,695.2181 719.3151,695.2181 Q717.9713,695.2181 717.2838,696.2963 Q716.5963,697.3588 716.5963,699.4525 Q716.5963,701.5463 717.2838,702.6244 Q717.9713,703.6869 719.3151,703.6869 Q719.9401,703.6869 720.5338,703.4213 Q721.1276,703.14 721.7526,702.5619 L721.7526,705.2806 Z " fill="#000000"/><text fill="#000000" font-family="sans-serif" font-size="14" lengthAdjust="spacing" textLength="96.4414" x="733.618" y="704.4867">CashPayment</text><line style="stroke:#181818;stroke-width:0.5;" x1="701.03" x2="835.8132" y1="715.64" y2="715.64"/><line style="stroke:#181818;stroke-width:0.5;" x1="701.03" x2="835.8132" y1="723.64" y2="723.64"/><ellipse cx="711.03" cy="737.2884" fill="#84BE84" rx="3" ry="3" style="stroke:#038048;stroke-width:1;"/><text fill="#000000" font-family="sans-serif" font-size="14" lengthAdjust="spacing" textLength="110.7832" x="720.03" y="740.6351">void pay(Order)</text></g><!--class CardPayment--><g class="entity" data-entity="CardPayment" data-source-line="91" data-uid="ent0013" id="entity_CardPayment"><rect fill="#F1F1F1" height="96.8906" rx="3.5" ry="3.5" style="stroke:#181818;stroke-width:0.5;" width="173.6221" x="871.61" y="667.35"/><ellipse cx="907.6273" cy="683.35" fill="#ADD1B2" rx="11" ry="11" style="stroke:#181818;stroke-width:1;"/><path d="M910.596,688.9906 Q910.0179,689.2875 909.3773,689.4281 Q908.7367,689.5844 908.0335,689.5844 Q905.5335,689.5844 904.2054,687.9437 Q902.8929,686.2875 902.8929,683.1625 Q902.8929,680.0375 904.2054,678.3812 Q905.5335,676.725 908.0335,676.725 Q908.7367,676.725 909.3773,676.8812 Q910.0335,677.0375 910.596,677.3344 L910.596,680.0531 Q909.971,679.475 909.3773,679.2094 Q908.7835,678.9281 908.1585,678.9281 Q906.8148,678.9281 906.1273,680.0062 Q905.4398,681.0687 905.4398,683.1625 Q905.4398,685.2562 906.1273,686.3344 Q906.8148,687.3969 908.1585,687.3969 Q908.7835,687.3969 909.3773,687.1312 Q909.971,686.85 910.596,686.2719 L910.596,688.9906 Z " fill="#000000"/><text fill="#000000" font-family="sans-serif" font-size="14" lengthAdjust="spacing" textLength="94.917" x="926.2978" y="688.1967">CardPayment</text><line style="stroke:#181818;stroke-width:0.5;" x1="872.61" x2="1044.2321" y1="699.35" y2="699.35"/><rect fill="none" height="6" style="stroke:#C82930;stroke-width:1;" width="6" x="879.61" y="709.9984"/><text fill="#000000" font-family="sans-serif" font-size="14" lengthAdjust="spacing" textLength="133.3896" x="891.61" y="716.3451">String cardNumber</text><line style="stroke:#181818;stroke-width:1;" x1="872.61" x2="1044.2321" y1="723.6469" y2="723.6469"/><ellipse cx="882.61" cy="737.2953" fill="#84BE84" rx="3" ry="3" style="stroke:#038048;stroke-width:1;"/><text fill="#000000" font-family="sans-serif" font-size="14" lengthAdjust="spacing" textLength="147.6221" x="891.61" y="740.642">CardPayment(String)</text><ellipse cx="882.61" cy="753.5922" fill="#84BE84" rx="3" ry="3" style="stroke:#038048;stroke-width:1;"/><text fill="#000000" font-family="sans-serif" font-size="14" lengthAdjust="spacing" textLength="110.7832" x="891.61" y="756.9389">void pay(Order)</text></g><!--class WalletPayment--><g class="entity" data-entity="WalletPayment" data-source-line="98" data-uid="ent0014" id="entity_WalletPayment"><rect fill="#F1F1F1" height="96.8906" rx="3.5" ry="3.5" style="stroke:#181818;stroke-width:0.5;" width="184.9287" x="1079.96" y="667.35"/><ellipse cx="1115.9773" cy="683.35" fill="#ADD1B2" rx="11" ry="11" style="stroke:#181818;stroke-width:1;"/><path d="M1118.946,688.9906 Q1118.3679,689.2875 1117.7273,689.4281 Q1117.0867,689.5844 1116.3835,689.5844 Q1113.8835,689.5844 1112.5554,687.9437 Q1111.2429,686.2875 1111.2429,683.1625 Q1111.2429,680.0375 1112.5554,678.3812 Q1113.8835,676.725 1116.3835,676.725 Q1117.0867,676.725 1117.7273,676.8812 Q1118.3835,677.0375 1118.946,677.3344 L1118.946,680.0531 Q1118.321,679.475 1117.7273,679.2094 Q1117.1335,678.9281 1116.5085,678.9281 Q1115.1648,678.9281 1114.4773,680.0062 Q1113.7898,681.0687 1113.7898,683.1625 Q1113.7898,685.2562 1114.4773,686.3344 Q1115.1648,687.3969 1116.5085,687.3969 Q1117.1335,687.3969 1117.7273,687.1312 Q1118.321,686.85 1118.946,686.2719 L1118.946,688.9906 Z " fill="#000000"/><text fill="#000000" font-family="sans-serif" font-size="14" lengthAdjust="spacing" textLength="106.2236" x="1134.6478" y="688.1967">WalletPayment</text><line style="stroke:#181818;stroke-width:0.5;" x1="1080.96" x2="1263.8887" y1="699.35" y2="699.35"/><rect fill="none" height="6" style="stroke:#C82930;stroke-width:1;" width="6" x="1087.96" y="709.9984"/><text fill="#000000" font-family="sans-serif" font-size="14" lengthAdjust="spacing" textLength="101.1582" x="1099.96" y="716.3451">String walletId</text><line style="stroke:#181818;stroke-width:1;" x1="1080.96" x2="1263.8887" y1="723.6469" y2="723.6469"/><ellipse cx="1090.96" cy="737.2953" fill="#84BE84" rx="3" ry="3" style="stroke:#038048;stroke-width:1;"/><text fill="#000000" font-family="sans-serif" font-size="14" lengthAdjust="spacing" textLength="158.9287" x="1099.96" y="740.642">WalletPayment(String)</text><ellipse cx="1090.96" cy="753.5922" fill="#84BE84" rx="3" ry="3" style="stroke:#038048;stroke-width:1;"/><text fill="#000000" font-family="sans-serif" font-size="14" lengthAdjust="spacing" textLength="110.7832" x="1099.96" y="756.9389">void pay(Order)</text></g><!--class Week3Demo--><g class="entity" data-entity="Week3Demo" data-source-line="105" data-uid="ent0015" id="entity_Week3Demo"><rect fill="#F1F1F1" height="64.2969" rx="3.5" ry="3.5" style="stroke:#181818;stroke-width:0.5;" width="193.6514" x="836.6" y="7"/><ellipse cx="884.3354" cy="23" fill="#ADD1B2" rx="11" ry="11" style="stroke:#181818;stroke-width:1;"/><path d="M887.3041,28.6406 Q886.726,28.9375 886.0854,29.0781 Q885.4447,29.2344 884.7416,29.2344 Q882.2416,29.2344 880.9135,27.5938 Q879.601,25.9375 879.601,22.8125 Q879.601,19.6875 880.9135,18.0313 Q882.2416,16.375 884.7416,16.375 Q885.4447,16.375 886.0854,16.5313 Q886.7416,16.6875 887.3041,16.9844 L887.3041,19.7031 Q886.6791,19.125 886.0854,18.8594 Q885.4916,18.5781 884.8666,18.5781 Q883.5229,18.5781 882.8354,19.6563 Q882.1479,20.7188 882.1479,22.8125 Q882.1479,24.9063 882.8354,25.9844 Q883.5229,27.0469 884.8666,27.0469 Q885.4916,27.0469 886.0854,26.7813 Q886.6791,26.5 887.3041,25.9219 L887.3041,28.6406 Z " fill="#000000"/><text fill="#000000" font-family="sans-serif" font-size="14" lengthAdjust="spacing" textLength="89.6807" x="904.8354" y="27.8467">Week3Demo</text><line style="stroke:#181818;stroke-width:0.5;" x1="837.6" x2="1029.2514" y1="39" y2="39"/><line style="stroke:#181818;stroke-width:0.5;" x1="837.6" x2="1029.2514" y1="47" y2="47"/><ellipse cx="847.6" cy="60.6484" fill="#84BE84" rx="3" ry="3" style="stroke:#038048;stroke-width:1;"/><text fill="#000000" font-family="sans-serif" font-size="14" lengthAdjust="spacing" text-decoration="underline" textLength="167.6514" x="856.6" y="63.9951">void main(String[] args)</text></g><!--reverse link Catalog to InMemoryCatalog--><g class="link" data-entity-1="Catalog" data-entity-2="InMemoryCatalog" data-source-line="110" data-uid="lnk16" id="link_Catalog_InMemoryCatalog"><path codeLine="110" d="M270.0479,296.0687 C258.9379,343.6587 244.43,405.78 232.56,456.64" fill="none" id="Catalog-backto-InMemoryCatalog" style="stroke:#454645;stroke-width:1;stroke-dasharray:7,7;"/><polygon fill="none" points="274.14,278.54,264.205,294.7046,275.8908,297.4327,274.14,278.54" style="stroke:#454645;stroke-width:1;"/></g><!--reverse link Product to SimpleProduct--><g class="link" data-entity-1="Product" data-entity-2="SimpleProduct" data-source-line="111" data-uid="lnk17" id="link_Product_SimpleProduct"><path codeLine="111" d="M335.42,782.3 C335.42,805.42 335.42,815.63 335.42,840.98" fill="none" id="Product-backto-SimpleProduct" style="stroke:#454645;stroke-width:1;stroke-dasharray:7,7;"/><polygon fill="none" points="335.42,764.3,329.42,782.3,341.42,782.3,335.42,764.3" style="stroke:#454645;stroke-width:1;"/></g><!--reverse link InMemoryCatalog to Product--><g class="link" data-entity-1="InMemoryCatalog" data-entity-2="Product" data-source-line="112" data-uid="lnk18" id="link_InMemoryCatalog_Product"><path codeLine="112" d="M253.338,564.6683 C271.878,598.5683 290.88,633.33 309.39,667.18" fill="none" id="InMemoryCatalog-backto-Product" style="stroke:#454645;stroke-width:1;"/><polygon fill="#454645" points="247.58,554.14,246.9495,561.3235,253.338,564.6683,253.9684,557.4848,247.58,554.14" style="stroke:#454645;stroke-width:1;"/><text fill="#000000" font-family="sans-serif" font-size="13" lengthAdjust="spacing" textLength="39.9395" x="293.42" y="633.4169">stores</text></g><!--link SimpleProduct to Money--><g class="link" data-entity-1="SimpleProduct" data-entity-2="Money" data-source-line="114" data-uid="lnk19" id="link_SimpleProduct_Money"><path codeLine="114" d="M384.13,978.98 C400.74,1002.17 416.4065,1024.042 435.3065,1050.432" fill="none" id="SimpleProduct-to-Money" style="stroke:#454645;stroke-width:1;"/><polygon fill="#454645" points="438.8,1055.31,436.8117,1045.6639,435.8887,1051.245,430.3077,1050.322,438.8,1055.31" style="stroke:#454645;stroke-width:1;"/><text fill="#000000" font-family="sans-serif" font-size="13" lengthAdjust="spacing" textLength="62.9307" x="417.42" y="1021.7869">basePrice</text></g><!--reverse link Order to LineItem--><g class="link" data-entity-1="Order" data-entity-2="LineItem" data-source-line="116" data-uid="lnk20" id="link_Order_LineItem"><path codeLine="116" d="M555.1116,353.7859 C549.3016,363.7859 549.67,363.47 544.42,373.27 C536.46,388.16 528.52,404.31 521.15,420.02" fill="none" id="Order-backto-LineItem" style="stroke:#454645;stroke-width:1;"/><polygon fill="none" points="561.14,343.41,554.6672,346.5885,555.1116,353.7859,561.5844,350.6074,561.14,343.41" style="stroke:#454645;stroke-width:1;"/><text fill="#000000" font-family="sans-serif" font-size="13" lengthAdjust="spacing" textLength="55.0278" x="545.42" y="386.3369">contains</text></g><!--link LineItem to Product--><g class="link" data-entity-1="LineItem" data-entity-2="Product" data-source-line="117" data-uid="lnk21" id="link_LineItem_Product"><path codeLine="117" d="M424.04,590.81 C405.48,616.77 389.2095,639.5391 373.0595,662.1291" fill="none" id="LineItem-to-Product" style="stroke:#454645;stroke-width:1;"/><polygon fill="#454645" points="369.57,667.01,378.0582,662.0149,372.4779,662.9425,371.5502,657.3623,369.57,667.01" style="stroke:#454645;stroke-width:1;"/><text fill="#000000" font-family="sans-serif" font-size="13" lengthAdjust="spacing" textLength="17.875" x="402.42" y="633.4169">for</text></g><!--link LineItem to Money--><g class="link" data-entity-1="LineItem" data-entity-2="Money" data-source-line="118" data-uid="lnk22" id="link_LineItem_Money"><path codeLine="118" d="M490.26,590.51 C498.33,707.06 512.5753,912.6443 522.0453,1049.3243" fill="none" id="LineItem-to-Money" style="stroke:#454645;stroke-width:1;"/><polygon fill="#454645" points="522.46,1055.31,525.8284,1046.055,522.1144,1050.322,517.8475,1046.608,522.46,1055.31" style="stroke:#454645;stroke-width:1;"/><text fill="#000000" font-family="sans-serif" font-size="13" lengthAdjust="spacing" textLength="66.1743" x="506.42" y="807.3069">lineTotal()</text></g><!--link Order to Money--><g class="link" data-entity-1="Order" data-entity-2="Money" data-source-line="119" data-uid="lnk23" id="link_Order_Money"><path codeLine="119" d="M627.42,343.46 C627.42,392.33 627.42,451.3 627.42,504.31 C627.42,504.31 627.42,504.31 627.42,910.98 C627.42,959.69 615.8544,1005.0663 598.7944,1049.6463" fill="none" id="Order-to-Money" style="stroke:#454645;stroke-width:1;"/><polygon fill="#454645" points="596.65,1055.25,603.6025,1048.2741,598.437,1050.5803,596.1309,1045.4148,596.65,1055.25" style="stroke:#454645;stroke-width:1;"/><text fill="#000000" font-family="sans-serif" font-size="13" lengthAdjust="spacing" textLength="36.499" x="628.42" y="720.3569">totals</text></g><!--link Week2Demo to Order--><g class="link" data-entity-1="Week2Demo" data-entity-2="Order" data-source-line="121" data-uid="lnk24" id="link_Week2Demo_Order"><path codeLine="121" d="M338.69,71.74 C386.84,99.26 452.881,137.0123 512.551,171.1223" fill="none" id="Week2Demo-to-Order" style="stroke:#454645;stroke-width:1;stroke-dasharray:7,7;"/><polygon fill="#454645" points="517.76,174.1,511.9317,166.1608,513.4192,171.6186,507.9614,173.1061,517.76,174.1" style="stroke:#454645;stroke-width:1;"/></g><!--link Week2Demo to Catalog--><g class="link" data-entity-1="Week2Demo" data-entity-2="Catalog" data-source-line="122" data-uid="lnk25" id="link_Week2Demo_Catalog"><path codeLine="122" d="M283.42,71.74 C283.42,105.83 283.42,154.18 283.42,191.12" fill="none" id="Week2Demo-to-Catalog" style="stroke:#454645;stroke-width:1;stroke-dasharray:7,7;"/><polygon fill="#454645" points="283.42,197.12,287.42,188.12,283.42,192.12,279.42,188.12,283.42,197.12" style="stroke:#454645;stroke-width:1;"/></g><!--link Week2Demo to OrderIds--><g class="link" data-entity-1="Week2Demo" data-entity-2="OrderIds" data-source-line="123" data-uid="lnk26" id="link_Week2Demo_OrderIds"><path codeLine="123" d="M215.11,71.77 C186,87.35 152.95,108.02 127.42,132.3 C105.22,153.42 89.4388,177.7167 77.1388,200.0067" fill="none" id="Week2Demo-to-OrderIds" style="stroke:#454645;stroke-width:1;stroke-dasharray:7,7;"/><polygon fill="#454645" points="74.24,205.26,82.0904,199.3127,76.6557,200.8823,75.0861,195.4476,74.24,205.26" style="stroke:#454645;stroke-width:1;"/></g><!--reverse link PaymentStrategy to CashPayment--><g class="link" data-entity-1="PaymentStrategy" data-entity-2="CashPayment" data-source-line="126" data-uid="lnk27" id="link_PaymentStrategy_CashPayment"><path codeLine="126" d="M763.9607,559.6625 C765.1107,599.4025 766.42,645.3 767.52,683.35" fill="none" id="PaymentStrategy-backto-CashPayment" style="stroke:#454645;stroke-width:1;stroke-dasharray:7,7;"/><polygon fill="none" points="763.44,541.67,757.9632,559.836,769.9582,559.4889,763.44,541.67" style="stroke:#454645;stroke-width:1;"/></g><!--reverse link PaymentStrategy to CardPayment--><g class="link" data-entity-1="PaymentStrategy" data-entity-2="CardPayment" data-source-line="127" data-uid="lnk28" id="link_PaymentStrategy_CardPayment"><path codeLine="127" d="M807.9985,554.7852 C840.4385,589.2952 877.68,628.9 913.59,667.1" fill="none" id="PaymentStrategy-backto-CardPayment" style="stroke:#454645;stroke-width:1;stroke-dasharray:7,7;"/><polygon fill="none" points="795.67,541.67,803.6268,558.8947,812.3702,550.6757,795.67,541.67" style="stroke:#454645;stroke-width:1;"/></g><!--reverse link PaymentStrategy to WalletPayment--><g class="link" data-entity-1="PaymentStrategy" data-entity-2="WalletPayment" data-source-line="128" data-uid="lnk29" id="link_PaymentStrategy_WalletPayment"><path codeLine="128" d="M848.4847,550.0689 C916.6447,584.7289 1004.59,629.45 1079.61,667.6" fill="none" id="PaymentStrategy-backto-WalletPayment" style="stroke:#454645;stroke-width:1;stroke-dasharray:7,7;"/><polygon fill="none" points="832.44,541.91,845.7651,555.4171,851.2043,544.7206,832.44,541.91" style="stroke:#454645;stroke-width:1;"/></g><!--link Order to PaymentStrategy--><g class="link" data-entity-1="Order" data-entity-2="PaymentStrategy" data-source-line="129" data-uid="lnk30" id="link_Order_PaymentStrategy"><path codeLine="129" d="M680.78,343.73 C703.33,388.08 725.3707,431.4316 741.6407,463.4316" fill="none" id="Order-to-PaymentStrategy" style="stroke:#454645;stroke-width:1;stroke-dasharray:7,7;"/><polygon fill="#454645" points="744.36,468.78,743.8466,458.9445,742.0939,464.323,736.7154,462.5703,744.36,468.78" style="stroke:#454645;stroke-width:1;"/><text fill="#000000" font-family="sans-serif" font-size="13" lengthAdjust="spacing" textLength="29.7832" x="704.42" y="386.3369">uses</text></g><!--link Week3Demo to Order--><g class="link" data-entity-1="Week3Demo" data-entity-2="Order" data-source-line="131" data-uid="lnk31" id="link_Week3Demo_Order"><path codeLine="131" d="M884.26,71.74 C844.64,97.2 792.4876,130.7162 742.1176,163.0862" fill="none" id="Week3Demo-to-Order" style="stroke:#454645;stroke-width:1;stroke-dasharray:7,7;"/><polygon fill="#454645" points="737.07,166.33,746.8039,164.8294,741.2763,163.6268,742.4788,158.0993,737.07,166.33" style="stroke:#454645;stroke-width:1;"/></g><!--link Week3Demo to CashPayment--><g class="link" data-entity-1="Week3Demo" data-entity-2="CashPayment" data-source-line="132" data-uid="lnk32" id="link_Week3Demo_CashPayment"><path codeLine="132" d="M929.91,71.56 C917.53,181.03 875.68,541.76 856.42,590.35 C842.63,625.16 821.0618,654.908 801.0718,678.678" fill="none" id="Week3Demo-to-CashPayment" style="stroke:#454645;stroke-width:1;stroke-dasharray:7,7;"/><polygon fill="#454645" points="797.21,683.27,806.064,678.9565,800.4281,679.4433,799.9413,673.8074,797.21,683.27" style="stroke:#454645;stroke-width:1;"/></g><!--link Week3Demo to CardPayment--><g class="link" data-entity-1="Week3Demo" data-entity-2="CardPayment" data-source-line="133" data-uid="lnk33" id="link_Week3Demo_CardPayment"><path codeLine="133" d="M934.6,71.79 C938.61,180.16 951.6076,530.9141 956.4276,660.8841" fill="none" id="Week3Demo-to-CardPayment" style="stroke:#454645;stroke-width:1;stroke-dasharray:7,7;"/><polygon fill="#454645" points="956.65,666.88,960.3137,657.7379,956.4647,661.8834,952.3192,658.0344,956.65,666.88" style="stroke:#454645;stroke-width:1;"/></g><!--link Week3Demo to WalletPayment--><g class="link" data-entity-1="Week3Demo" data-entity-2="WalletPayment" data-source-line="134" data-uid="lnk34" id="link_Week3Demo_WalletPayment"><path codeLine="134" d="M949.17,71.59 C953.67,81.04 958.44,91.5 962.42,101.3 C1046.62,308.29 1124.7646,557.3995 1156.3946,661.4295" fill="none" id="Week3Demo-to-WalletPayment" style="stroke:#454645;stroke-width:1;stroke-dasharray:7,7;"/><polygon fill="#454645" points="1158.14,667.17,1159.3489,657.3956,1156.6855,662.3862,1151.6949,659.7228,1158.14,667.17" style="stroke:#454645;stroke-width:1;"/></g><!--SRC=[fLLRRzCm57xFhpWyBOMbchQtgbJQkY4gRQnYGtr023d9QMjmuc8xPM7il-CuTko4SXClkPpBv-zS_KnjiK3OqrIGKaL7SFL0fQBb1bQ8d-4Kven8YJBAcZVSYXp58fVm606yW4UfYABP4p2kFKfyKF4eUeeYMYeKQv8Xp8aYZ6-i_PxJ74YUnql1yofJ8oEztIdAIyAcLZg3DItpYtgHntTAQ2u6ioMmA6-muA8ESHEu8RjfQteC7KYg0Hfjyjz7-t2icGsdDG6QnwFmloG5MiaDBx66b4XS2ffX74HoHuiTmn0myO3XNmFNHja7yx7re6AN2FSsRYDddV5IAa5qI1CF1RENSEAfjGTDftl2AWIUVaATcPdbU44tbvZHWZ0W1QzqqtGykdPe0VWwpdcLCXmTqdv3mNjPQehJSNN2ecAAxbWTQyAXFATxcgENwWyTMh4Z0kzv26EJg7ZxOKzCEMT8Ii0l5M4olZKXUgGjaTivpzigck1ekIU2aYPhRTGcPUEJ4wsJ6M4uqREIjtcHyUlpwrSVtos3Qb_J4XSA2vj4L_PT-pQovc1DfrHKrJwdpj7rxJ5qCGz0Oi_VmVJoopJIFTTZ4nzi1kS3ix0LpC1RqcR8RMzUwoqnTTncGFLJUjB6AsxiHxtXCu4uhv2Rh5BLKND2HHxErH95XgKQrjzOhwZQtfC7hxCCBSeXZd50Q4VgU4dgGiFhvY0ADtLGiMR_dLxgPJFSTSQtq4cpa_R-0n2naSRr2DvShThLUGOM6nnujqk3VT8_NizSfxC35t0rMGqOpdMNkZF-Q2hoqBHRBfbMlAcA58MlNc3SRS7Vegy8OwWEudyrgd0Hzup_4b_dy-pVIz5TPM-HaMRFootToSXT7TFlu_7mFedSJ1bbRwz6mwldUUBdU09ISQ5B6_NNUfBCRCC6spQAsgdYIUBtmgGPHgL3aL4dQxpz2Mik-Ye770vsYnngpQHeOhwVn-DPEw43cSl10KjzvG-Qkv_Jd_guIL_Gdxyow1hji46lLsni3QUXyGIgPguYtoZz6C-263sdeSQJwMjwB7u0]--></g></svg>